<?xml version="1.0" standalone="no"?>
<!DOCTYPE svg PUBLIC "-//W3C//DTD SVG 20010904//EN"
 "http://www.w3.org/TR/2001/REC-SVG-20010904/DTD/svg10.dtd">
<svg version="1.0" xmlns="http://www.w3.org/2000/svg"
 width="607.000000pt" height="607.000000pt" viewBox="0 0 607.000000 607.000000"
 preserveAspectRatio="xMidYMid meet">
<metadata>
Created by potrace 1.11, written by Peter Selinger 2001-2013
</metadata>
<g transform="translate(0.000000,607.000000) scale(0.100000,-0.100000)"
fill="#000000" stroke="none">
<path d="M1863 4859 c-139 -24 -210 -76 -254 -185 l-24 -59 -3 -1510 c-2 -971
1 -1539 7 -1590 16 -127 27 -155 85 -210 56 -55 112 -79 228 -95 92 -14 1472
-13 1583 1 261 32 492 151 679 349 176 188 273 391 312 651 45 307 -31 611
-217 868 l-61 85 22 35 c48 80 110 221 132 301 20 75 23 107 23 275 -1 228
-16 298 -100 470 -67 137 -128 217 -254 337 -110 104 -219 174 -343 219 -176
65 -139 62 -988 65 -426 1 -798 -2 -827 -7z m1449 -890 c155 -33 202 -115 180
-311 -9 -87 -12 -94 -45 -124 -43 -40 -83 -51 -212 -59 -218 -13 -300 -44
-348 -134 -61 -111 -60 -345 1 -454 24 -43 40 -58 94 -85 60 -32 73 -34 209
-43 219 -13 270 -23 328 -67 60 -45 76 -97 76 -252 0 -120 -3 -141 -23 -186
-27 -60 -81 -116 -137 -141 -36 -16 -83 -18 -502 -21 l-463 -3 0 946 0 945
395 0 c253 0 413 -4 447 -11z"/>
</g>
</svg>
